<svg width="16" height="17" viewBox="0 0 16 17" fill="none" xmlns="http://www.w3.org/2000/svg">
<path d="M5.66629 11.557L3.13762 9.02829C3.01189 8.90685 2.84348 8.83965 2.66869 8.84117C2.49389 8.84269 2.32668 8.9128 2.20307 9.03641C2.07947 9.16001 2.00936 9.32722 2.00784 9.50202C2.00632 9.67682 2.07351 9.84522 2.19495 9.97095L5.19495 12.971C5.31997 13.0959 5.48951 13.1661 5.66629 13.1661C5.84306 13.1661 6.0126 13.0959 6.13762 12.971L13.471 5.63762C13.5924 5.51189 13.6596 5.34348 13.6581 5.16869C13.6566 4.99389 13.5864 4.82668 13.4628 4.70307C13.3392 4.57947 13.172 4.50936 12.9972 4.50784C12.8224 4.50632 12.654 4.57352 12.5283 4.69495L5.66629 11.557Z" fill="#068513"/>
</svg>
