<svg width="76" height="76" viewBox="0 0 76 76" fill="none" xmlns="http://www.w3.org/2000/svg">
<rect x="0.25" width="75.5" height="75.5" rx="37.75" fill="#0853C2" fill-opacity="0.1"/>
<path fill-rule="evenodd" clip-rule="evenodd" d="M45.7348 29.7364C45.7348 32.4583 45.0585 36.0084 44.018 35.4697C43.5925 36.8591 42.6993 38.0585 41.4899 38.8641C40.2806 39.6697 38.8297 40.032 37.3836 39.8893C35.9375 39.7467 34.5853 39.1079 33.5567 38.0815C32.5281 37.0551 31.8864 35.7043 31.7406 34.2585C30.708 32.452 29.3537 28.832 32.8354 26.0101C32.8983 25.9897 32.936 25.8198 32.9927 25.5697C33.2081 24.6236 33.6855 22.5206 36.6969 22.9225C39.0193 23.2316 45.7348 24.4301 45.7348 29.7364ZM42.7416 31.4532C42.7416 31.4532 42.3861 32.4929 42.7196 33.6514C42.7152 34.8866 42.2267 36.0708 41.359 36.9499C40.4912 37.8289 39.3134 38.3327 38.0783 38.3529C36.8433 38.3732 35.6495 37.9084 34.7534 37.0584C33.8572 36.2083 33.3301 35.0407 33.2852 33.8063C33.3993 33.3738 33.3993 32.6416 33.3985 31.8276C33.3977 30.3593 33.3961 28.6267 34.0685 27.9205C38.7786 31.0576 42.7416 31.4532 42.7416 31.4532Z" fill="#0853C2"/>
<path d="M29.349 47.1879C29.349 46.337 29.7996 45.5914 30.476 45.1762C30.4502 45.0783 30.4261 44.9799 30.4036 44.8812C30.2843 44.344 30.1911 43.8012 30.1244 43.2548C30.0568 42.7314 30.0161 42.2048 30.0025 41.6772C26.6829 42.9804 23.8438 45.2517 23.8438 47.6362V51.9067H52.1562V47.6362C52.1562 45.3523 49.5531 43.1731 46.4167 41.8479V41.8699C46.4308 42.3496 46.4041 42.9002 46.3522 43.4294C46.305 43.9202 46.235 44.4094 46.1509 44.8286H46.651C46.7971 44.8286 46.9402 44.8694 47.0643 44.9462C47.1885 45.023 47.2889 45.1328 47.3541 45.2635L48.1406 46.8364C48.1956 46.9457 48.224 47.066 48.224 47.1879V48.7608C48.224 48.9694 48.1411 49.1695 47.9936 49.317C47.8461 49.4644 47.6461 49.5473 47.4375 49.5473H45.8646V47.9744H46.651V47.3735L46.165 46.4015H43.9912L43.5052 47.3735V47.9744H44.2917V49.5473H42.7188C42.5102 49.5473 42.3101 49.4644 42.1626 49.317C42.0152 49.1695 41.9323 48.9694 41.9323 48.7608V47.1879C41.9323 47.066 41.9606 46.9457 42.0157 46.8364L42.8021 45.2635C42.8674 45.1328 42.9677 45.023 43.0919 44.9462C43.2161 44.8694 43.3592 44.8286 43.5052 44.8286H44.5394C44.5567 44.7609 44.574 44.6862 44.5913 44.6036C44.67 44.2332 44.7399 43.7637 44.7871 43.2784C44.8343 42.7924 44.8563 42.3103 44.8445 41.9139C44.8416 41.7497 44.8287 41.5858 44.806 41.4232C44.7887 41.3115 44.7714 41.2604 44.7683 41.2494C44.7675 41.247 44.7667 41.2462 44.7683 41.2478L44.7706 41.247C44.3533 41.1174 43.9312 41.0038 43.5052 40.9065C43.1096 40.816 42.7007 41.3603 42.5221 41.7008H33.2812C33.2583 41.657 33.2357 41.6129 33.2136 41.5687C33.0469 41.2368 32.8416 40.8271 32.4948 40.9065C32.192 40.9749 31.8892 41.0536 31.5864 41.1401C31.5767 41.278 31.5725 41.4163 31.5738 41.5545C31.577 41.9894 31.6187 42.5219 31.6855 43.0598C31.7524 43.5962 31.8428 44.1184 31.9372 44.5305C31.9639 44.6492 31.9907 44.7562 32.0158 44.8482C32.4655 44.9073 32.8885 45.0948 33.2344 45.3881C33.5803 45.6814 33.8343 46.0682 33.966 46.5021C34.0977 46.9361 34.1016 47.3988 33.9771 47.8349C33.8527 48.271 33.6052 48.662 33.2643 48.961C32.9234 49.2601 32.5036 49.4546 32.055 49.5212C31.6064 49.5879 31.1481 49.5238 30.735 49.3367C30.3219 49.1496 29.9715 48.8475 29.7257 48.4664C29.4798 48.0853 29.349 47.6414 29.349 47.1879Z" fill="#0853C2"/>
<path d="M32.4948 47.1879C32.4948 47.6393 32.1314 47.9862 31.7083 47.9862C31.2852 47.9862 30.9219 47.6401 30.9219 47.1879C30.9219 46.7365 31.2852 46.3896 31.7083 46.3896C32.1314 46.3896 32.4948 46.7357 32.4948 47.1879Z" fill="#0853C2"/>
</svg>
