<svg width="77" height="76" viewBox="0 0 77 76" fill="none" xmlns="http://www.w3.org/2000/svg">
<rect x="0.578125" width="75.5" height="75.5" rx="37.75" fill="#E4871B" fill-opacity="0.1"/>
<path fill-rule="evenodd" clip-rule="evenodd" d="M53.2734 32.2445C53.2734 30.0361 53.2734 28.9303 52.7434 28.1376C52.5138 27.7939 52.2188 27.4989 51.8751 27.2693C51.1815 26.8053 50.2487 26.7471 48.5484 26.7408C48.5547 27.1985 48.5547 27.6783 48.5547 28.1722V30.2783H50.1276C50.4405 30.2783 50.7405 30.4026 50.9618 30.6238C51.183 30.8451 51.3073 31.1451 51.3073 31.458C51.3073 31.7709 51.183 32.0709 50.9618 32.2922C50.7405 32.5134 50.4405 32.6377 50.1276 32.6377H48.5547V34.9971H50.1276C50.4405 34.9971 50.7405 35.1214 50.9618 35.3426C51.183 35.5638 51.3073 35.8639 51.3073 36.1768C51.3073 36.4896 51.183 36.7897 50.9618 37.0109C50.7405 37.2322 50.4405 37.3564 50.1276 37.3564H48.5547V39.7158H50.1276C50.4405 39.7158 50.7405 39.8401 50.9618 40.0613C51.183 40.2826 51.3073 40.5826 51.3073 40.8955C51.3073 41.2084 51.183 41.5084 50.9618 41.7297C50.7405 41.9509 50.4405 42.0752 50.1276 42.0752H48.5547V52.2992H46.1953V28.3122C46.1953 25.3457 46.1953 23.864 45.2736 22.9422C44.3519 22.0205 42.8702 22.0205 39.9036 22.0205H36.7578C33.7913 22.0205 32.3096 22.0205 31.3879 22.9422C30.4661 23.864 30.4661 25.3457 30.4661 28.3122V52.2992H28.1068V42.0752H26.5339C26.221 42.0752 25.9209 41.9509 25.6997 41.7297C25.4785 41.5084 25.3542 41.2084 25.3542 40.8955C25.3542 40.5826 25.4785 40.2826 25.6997 40.0613C25.9209 39.8401 26.221 39.7158 26.5339 39.7158H28.1068V37.3564H26.5339C26.221 37.3564 25.9209 37.2322 25.6997 37.0109C25.4785 36.7897 25.3542 36.4896 25.3542 36.1768C25.3542 35.8639 25.4785 35.5638 25.6997 35.3426C25.9209 35.1214 26.221 34.9971 26.5339 34.9971H28.1068V32.6377H26.5339C26.221 32.6377 25.9209 32.5134 25.6997 32.2922C25.4785 32.0709 25.3542 31.7709 25.3542 31.458C25.3542 31.1451 25.4785 30.8451 25.6997 30.6238C25.9209 30.4026 26.221 30.2783 26.5339 30.2783H28.1068V28.1706C28.1068 27.6783 28.1068 27.1985 28.1131 26.7393C26.4127 26.7471 25.48 26.8053 24.7863 27.2693C24.4427 27.4989 24.1477 27.7939 23.9181 28.1376C23.388 28.9303 23.388 30.0361 23.388 32.2445V52.2992H22.6016C22.2887 52.2992 21.9886 52.4234 21.7674 52.6447C21.5462 52.8659 21.4219 53.166 21.4219 53.4788C21.4219 53.7917 21.5462 54.0918 21.7674 54.313C21.9886 54.5342 22.2887 54.6585 22.6016 54.6585H54.0599C54.3728 54.6585 54.6728 54.5342 54.8941 54.313C55.1153 54.0918 55.2396 53.7917 55.2396 53.4788C55.2396 53.166 55.1153 52.8659 54.8941 52.6447C54.6728 52.4234 54.3728 52.2992 54.0599 52.2992H53.2734V32.2445ZM38.3307 25.5596C38.6436 25.5596 38.9437 25.6839 39.1649 25.9051C39.3861 26.1263 39.5104 26.4264 39.5104 26.7393V28.7054H41.4766C41.7894 28.7054 42.0895 28.8297 42.3107 29.0509C42.532 29.2722 42.6562 29.5722 42.6562 29.8851C42.6562 30.198 42.532 30.498 42.3107 30.7193C42.0895 30.9405 41.7894 31.0648 41.4766 31.0648H39.5104V33.0309C39.5104 33.3438 39.3861 33.6439 39.1649 33.8651C38.9437 34.0863 38.6436 34.2106 38.3307 34.2106C38.0179 34.2106 37.7178 34.0863 37.4966 33.8651C37.2753 33.6439 37.151 33.3438 37.151 33.0309V31.0648H35.1849C34.872 31.0648 34.572 30.9405 34.3507 30.7193C34.1295 30.498 34.0052 30.198 34.0052 29.8851C34.0052 29.5722 34.1295 29.2722 34.3507 29.0509C34.572 28.8297 34.872 28.7054 35.1849 28.7054H37.151V26.7393C37.151 26.4264 37.2753 26.1263 37.4966 25.9051C37.7178 25.6839 38.0179 25.5596 38.3307 25.5596ZM34.0052 37.7497C34.0052 37.4368 34.1295 37.1367 34.3507 36.9155C34.572 36.6943 34.872 36.57 35.1849 36.57H41.4766C41.7894 36.57 42.0895 36.6943 42.3107 36.9155C42.532 37.1367 42.6562 37.4368 42.6562 37.7497C42.6562 38.0625 42.532 38.3626 42.3107 38.5838C42.0895 38.8051 41.7894 38.9294 41.4766 38.9294H35.1849C34.872 38.9294 34.572 38.8051 34.3507 38.5838C34.1295 38.3626 34.0052 38.0625 34.0052 37.7497ZM34.0052 42.4684C34.0052 42.1556 34.1295 41.8555 34.3507 41.6343C34.572 41.413 34.872 41.2887 35.1849 41.2887H41.4766C41.7894 41.2887 42.0895 41.413 42.3107 41.6343C42.532 41.8555 42.6562 42.1556 42.6562 42.4684C42.6562 42.7813 42.532 43.0814 42.3107 43.3026C42.0895 43.5238 41.7894 43.6481 41.4766 43.6481H35.1849C34.872 43.6481 34.572 43.5238 34.3507 43.3026C34.1295 43.0814 34.0052 42.7813 34.0052 42.4684ZM38.3307 47.5804C38.6436 47.5804 38.9437 47.7047 39.1649 47.9259C39.3861 48.1472 39.5104 48.4472 39.5104 48.7601V52.2992H37.151V48.7601C37.151 48.4472 37.2753 48.1472 37.4966 47.9259C37.7178 47.7047 38.0179 47.5804 38.3307 47.5804Z" fill="#E4871B"/>
</svg>
