<svg width="164" height="32" viewBox="0 0 164 32" fill="none" xmlns="http://www.w3.org/2000/svg">
<mask id="mask0_5588_151158" style="mask-type:luminance" maskUnits="userSpaceOnUse" x="10" y="1" width="21" height="20">
<path d="M10.6641 1.09277H30.0174V20.7785H10.6641V1.09277Z" fill="white"/>
</mask>
<g mask="url(#mask0_5588_151158)">
<path d="M10.6641 1.10352V1.34829C10.6641 3.92422 11.1758 6.44733 12.1427 8.78171C13.1096 11.1164 14.5318 13.2624 16.3535 15.0837C19.978 18.708 24.8872 20.7519 30.0106 20.7725V9.82297C27.752 10.1744 25.4279 10.1277 23.1451 9.66258C18.0965 8.63291 13.6645 5.64087 10.8232 1.34378L10.6641 1.10352Z" fill="#69CC26"/>
</g>
<mask id="mask1_5588_151158" style="mask-type:luminance" maskUnits="userSpaceOnUse" x="10" y="0" width="13" height="10">
<path d="M10.6641 0.31543H22.0606V9.41945H10.6641V0.31543Z" fill="white"/>
</mask>
<g mask="url(#mask1_5588_151158)">
<path d="M10.6641 0.310547V1.10252L10.8232 1.34279C12.2438 3.49101 14.0622 5.31361 16.1563 6.72751C17.9429 7.93367 19.9304 8.84256 22.0429 9.40265V9.3933C22.0429 4.3767 17.9761 0.310547 12.9598 0.310547H10.6641Z" fill="#068513"/>
</g>
<mask id="mask2_5588_151158" style="mask-type:luminance" maskUnits="userSpaceOnUse" x="2" y="10" width="20" height="20">
<path d="M2.08594 10.1406H21.4499V29.8463H2.08594V10.1406Z" fill="white"/>
</mask>
<g mask="url(#mask2_5588_151158)">
<path d="M21.4322 29.8145V29.5697C21.4322 26.9933 20.9207 24.4703 19.9532 22.1362C18.9863 19.8016 17.5644 17.6553 15.7428 15.8343C12.1185 12.21 7.20945 10.1658 2.08594 10.1455V21.0947C4.34431 20.7436 6.66837 20.79 8.95155 21.2554C13.9994 22.285 18.4314 25.2768 21.2734 29.5743L21.4322 29.8145Z" fill="#69CC26"/>
</g>
<mask id="mask3_5588_151158" style="mask-type:luminance" maskUnits="userSpaceOnUse" x="9" y="21" width="13" height="10">
<path d="M9.99219 21.4375H21.4528V30.6034H9.99219V21.4375Z" fill="white"/>
</mask>
<g mask="url(#mask3_5588_151158)">
<path d="M21.4413 30.6068V29.8148L21.2825 29.5746C19.8615 27.4258 18.0431 25.6036 15.9487 24.1895C14.1625 22.9833 12.1753 22.0745 10.0625 21.5146V21.524C10.0625 26.5402 14.129 30.6068 19.1456 30.6068H21.4413Z" fill="#068513"/>
</g>
<path d="M37.8359 4.74609H42.1533L45.7235 11.6789L49.2106 4.74609H53.528V19.0267H49.2106V11.409L46.5745 16.3906H44.8102L42.1533 11.409V19.0267H37.8359V4.74609ZM61.3298 23.78C60.5687 23.78 59.8422 23.7039 59.1503 23.5517L59.4824 20.4797C60.0221 20.5627 60.5203 20.6043 60.9769 20.6043C61.7933 20.6043 62.416 20.3552 62.845 19.857C63.274 19.3727 63.4954 18.4525 63.5092 17.0964C62.7897 18.4801 61.6342 19.172 60.0429 19.172C58.7006 19.172 57.6489 18.7016 56.8878 17.7606C56.1406 16.8058 55.767 15.4912 55.767 13.8168V8.62761H60.1259V14.4603C60.1259 14.9307 60.2573 15.3251 60.5203 15.6434C60.7832 15.9478 61.143 16.1 61.5996 16.1C62.0701 16.1 62.4506 15.8994 62.7412 15.4981C63.0457 15.0968 63.1979 14.571 63.1979 13.9206V8.62761H67.5776V16.3906C67.5776 18.7984 67.0379 20.6319 65.9585 21.8912C64.8792 23.1504 63.3363 23.78 61.3298 23.78Z" fill="#0D1717"/>
<path d="M69.9844 4.74659H74.3018L77.8719 11.6793L81.3591 4.74659H85.6765V19.0272H81.3591V11.4095L78.723 16.3911H76.9586L74.3018 11.4095V19.0272H69.9844V4.74659ZM93.353 19.1933C92.2045 19.1933 91.1805 18.965 90.281 18.5083C89.3954 18.0378 88.7035 17.4013 88.2053 16.5987C87.7072 15.7823 87.4581 14.8621 87.4581 13.838C87.4581 12.7864 87.7141 11.8523 88.2261 11.0359C88.7381 10.2195 89.43 9.58983 90.3018 9.14702C91.1736 8.70421 92.1422 8.48281 93.2077 8.48281C94.2317 8.48281 95.1035 8.71113 95.8231 9.16778C96.5565 9.61059 97.1031 10.2195 97.4629 10.9944C97.8226 11.7555 98.0025 12.6134 98.0025 13.5682C98.0025 13.8173 97.9887 13.9972 97.961 14.1079L91.734 14.9174C91.9 15.4017 92.1699 15.7546 92.5435 15.976C92.9171 16.1836 93.4084 16.2873 94.0172 16.2873C94.9582 16.2873 95.9753 16.0452 97.0685 15.5609L97.5874 18.3423C96.3005 18.9096 94.889 19.1933 93.353 19.1933ZM94.7852 12.3021C94.5638 11.4303 94.038 10.9944 93.2077 10.9944C92.7096 10.9944 92.3152 11.1812 92.0246 11.5548C91.734 11.9284 91.5818 12.4128 91.5679 13.0078L94.7852 12.3021ZM104.057 19.1933C103.116 19.1933 102.258 18.9442 101.483 18.446C100.722 17.9479 100.12 17.2906 99.6769 16.4742C99.2341 15.6439 99.0127 14.7652 99.0127 13.838C99.0127 12.8556 99.241 11.9561 99.6977 11.1397C100.168 10.3094 100.791 9.65902 101.566 9.18854C102.355 8.71805 103.192 8.48281 104.077 8.48281C104.88 8.48281 105.558 8.64886 106.111 8.98097C106.679 9.31308 107.135 9.84583 107.481 10.5792V5.34854L111.861 4.70508V19.0272H107.481V17.0969C106.831 18.4945 105.689 19.1933 104.057 19.1933ZM105.427 15.9137C106.008 15.9137 106.492 15.7062 106.88 15.291C107.281 14.8759 107.481 14.3916 107.481 13.838V13.755C107.481 13.2153 107.274 12.7518 106.859 12.3643C106.444 11.963 105.966 11.7624 105.427 11.7624C104.845 11.7624 104.354 11.9699 103.953 12.3851C103.565 12.7864 103.372 13.2707 103.372 13.838C103.372 14.4192 103.572 14.9105 103.974 15.3118C104.389 15.7131 104.873 15.9137 105.427 15.9137ZM114.295 4.74659H118.965V10.4339H123.387V4.74659H128.078V19.0272H123.387V13.4229H118.965V19.0272H114.295V4.74659ZM135.863 19.1933C134.77 19.1933 133.794 18.9996 132.936 18.6121C132.092 18.2246 131.435 17.6781 130.964 16.9723C130.494 16.2666 130.259 15.464 130.259 14.5645V8.6281H134.535V14.5023C134.535 14.9589 134.659 15.3187 134.908 15.5816C135.171 15.8307 135.496 15.9552 135.884 15.9552C136.257 15.9552 136.562 15.8307 136.797 15.5816C137.046 15.3187 137.171 14.9589 137.171 14.5023V8.6281H141.364V14.5645C141.364 15.4778 141.128 16.2873 140.658 16.9931C140.201 17.685 139.558 18.2246 138.727 18.6121C137.897 18.9996 136.942 19.1933 135.863 19.1933ZM151.201 19.1933C149.61 19.1933 148.482 18.4945 147.817 17.0969V19.0272H143.417V5.34854L147.817 4.70508V10.5792C148.164 9.84583 148.613 9.31308 149.167 8.98097C149.72 8.64886 150.391 8.48281 151.18 8.48281C152.107 8.48281 152.958 8.71805 153.733 9.18854C154.522 9.64519 155.138 10.2817 155.581 11.0982C156.037 11.9146 156.266 12.8279 156.266 13.838C156.266 14.8344 156.03 15.7408 155.56 16.5572C155.103 17.3736 154.481 18.0171 153.692 18.4876C152.917 18.958 152.087 19.1933 151.201 19.1933ZM149.873 15.9137C150.44 15.9137 150.924 15.7062 151.326 15.291C151.727 14.8759 151.927 14.3916 151.927 13.838C151.927 13.2569 151.72 12.7656 151.305 12.3643C150.903 11.963 150.426 11.7624 149.873 11.7624C149.305 11.7624 148.821 11.963 148.42 12.3643C148.018 12.7518 147.817 13.2153 147.817 13.755V13.838C147.817 14.4192 148.018 14.9105 148.42 15.3118C148.835 15.7131 149.319 15.9137 149.873 15.9137Z" fill="#068513"/>
<path d="M41.1407 27.144H40.3861C40.3571 26.9827 40.3031 26.8409 40.2242 26.7183C40.145 26.5957 40.0484 26.4917 39.934 26.4063C39.8194 26.3209 39.6912 26.2565 39.5493 26.2128C39.409 26.1693 39.2598 26.1475 39.102 26.1475C38.8166 26.1475 38.561 26.2193 38.3353 26.3629C38.1111 26.5062 37.9338 26.7168 37.8032 26.994C37.6741 27.2714 37.6097 27.61 37.6097 28.0098C37.6097 28.413 37.6741 28.7531 37.8032 29.0305C37.9338 29.3079 38.1119 29.5174 38.3377 29.6593C38.5634 29.8013 38.8172 29.8723 39.0994 29.8723C39.2559 29.8723 39.4043 29.8513 39.5446 29.8093C39.6864 29.7659 39.8146 29.7021 39.929 29.6182C40.0436 29.5343 40.1403 29.432 40.2192 29.3112C40.2998 29.1886 40.3556 29.0483 40.3861 28.8902L41.1407 28.8926C41.1005 29.136 41.0222 29.3603 40.9061 29.565C40.7917 29.7683 40.6443 29.944 40.4635 30.0924C40.2847 30.239 40.0797 30.3527 39.8492 30.4333C39.6188 30.514 39.3671 30.5542 39.0946 30.5542C38.6657 30.5542 38.2836 30.4526 37.9483 30.2496C37.6129 30.0448 37.3485 29.752 37.155 29.3715C36.963 28.991 36.8672 28.5371 36.8672 28.0098C36.8672 27.4809 36.9638 27.0271 37.1573 26.6483C37.3509 26.2677 37.6153 25.9758 37.9506 25.7726C38.286 25.5678 38.6674 25.4656 39.0946 25.4656C39.3576 25.4656 39.6025 25.5034 39.83 25.5791C40.0588 25.6532 40.2644 25.7631 40.4466 25.9081C40.6289 26.0515 40.7796 26.2273 40.899 26.4353C41.0183 26.6418 41.0988 26.8779 41.1407 27.144ZM43.5418 30.5616C43.1937 30.5616 42.8897 30.4818 42.63 30.322C42.3705 30.1624 42.1688 29.9391 42.0255 29.6522C41.8819 29.365 41.8101 29.0297 41.8101 28.6459C41.8101 28.2606 41.8819 27.9235 42.0255 27.6351C42.1688 27.3464 42.3705 27.1222 42.63 26.9626C42.8897 26.8031 43.1937 26.7231 43.5418 26.7231C43.8901 26.7231 44.1941 26.8031 44.4538 26.9626C44.7132 27.1222 44.9148 27.3464 45.0583 27.6351C45.2019 27.9235 45.2737 28.2606 45.2737 28.6459C45.2737 29.0297 45.2019 29.365 45.0583 29.6522C44.9148 29.9391 44.7132 30.1624 44.4538 30.322C44.1941 30.4818 43.8901 30.5616 43.5418 30.5616ZM43.5444 29.9544C43.7701 29.9544 43.9571 29.8947 44.1055 29.7754C44.2538 29.656 44.3634 29.4973 44.4343 29.2991C44.507 29.1006 44.5431 28.8822 44.5431 28.6435C44.5431 28.4065 44.507 28.1888 44.4343 27.9905C44.3634 27.7905 44.2538 27.6301 44.1055 27.5092C43.9571 27.3884 43.7701 27.3278 43.5444 27.3278C43.3169 27.3278 43.1284 27.3884 42.9783 27.5092C42.83 27.6301 42.7195 27.7905 42.6471 27.9905C42.5759 28.1888 42.5405 28.4065 42.5405 28.6435C42.5405 28.8822 42.5759 29.1006 42.6471 29.2991C42.7195 29.4973 42.83 29.656 42.9783 29.7754C43.1284 29.8947 43.3169 29.9544 43.5444 29.9544ZM46.804 28.2807V30.4865H46.0808V26.7715H46.7749V27.3763H46.8209C46.9063 27.1795 47.0402 27.0214 47.2224 26.9021C47.4062 26.7827 47.6376 26.7231 47.9165 26.7231C48.1697 26.7231 48.3913 26.7765 48.5816 26.8829C48.7718 26.9875 48.9195 27.144 49.0242 27.352C49.129 27.56 49.1816 27.8171 49.1816 28.1235V30.4865H48.4583V28.2106C48.4583 27.9414 48.388 27.7309 48.2479 27.5793C48.1076 27.4262 47.915 27.3497 47.6698 27.3497C47.5022 27.3497 47.353 27.3858 47.2224 27.4584C47.0933 27.5311 46.9911 27.6374 46.9152 27.7778C46.841 27.9164 46.804 28.0839 46.804 28.2807ZM50.8745 28.2807V30.4865H50.1513V26.7715H50.8456V27.3763H50.8914C50.9768 27.1795 51.1106 27.0214 51.2929 26.9021C51.4767 26.7827 51.708 26.7231 51.987 26.7231C52.2402 26.7231 52.462 26.7765 52.6523 26.8829C52.8425 26.9875 52.99 27.144 53.0949 27.352C53.1995 27.56 53.252 27.8171 53.252 28.1235V30.4865H52.5288V28.2106C52.5288 27.9414 52.4587 27.7309 52.3184 27.5793C52.1781 27.4262 51.9855 27.3497 51.7403 27.3497C51.5727 27.3497 51.4235 27.3858 51.2929 27.4584C51.1638 27.5311 51.0616 27.6374 50.9857 27.7778C50.9115 27.9164 50.8745 28.0839 50.8745 28.2807ZM55.8229 30.5616C55.457 30.5616 55.1418 30.4833 54.8773 30.327C54.6144 30.1689 54.4114 29.9473 54.2678 29.6619C54.126 29.3747 54.0549 29.0385 54.0549 28.6532C54.0549 28.2727 54.126 27.9373 54.2678 27.6472C54.4114 27.3568 54.6112 27.1302 54.8676 26.9674C55.1256 26.8046 55.4272 26.7231 55.7723 26.7231C55.9818 26.7231 56.185 26.7579 56.3816 26.8271C56.5783 26.8965 56.755 27.0054 56.9113 27.1538C57.0678 27.3021 57.1911 27.4947 57.2815 27.7317C57.3716 27.9672 57.4168 28.2534 57.4168 28.5903V28.8467H54.4637V28.3049H56.7083C56.7083 28.1146 56.6696 27.9462 56.5922 27.7994C56.5147 27.6511 56.4058 27.5343 56.2657 27.4487C56.1269 27.3633 55.964 27.3205 55.777 27.3205C55.5738 27.3205 55.3965 27.3706 55.2449 27.4705C55.0949 27.5689 54.979 27.6978 54.8966 27.8576C54.8159 28.0156 54.7757 28.1873 54.7757 28.3726V28.7959C54.7757 29.0441 54.8192 29.2554 54.9063 29.4297C54.995 29.6037 55.1184 29.7367 55.2763 29.8286C55.4343 29.919 55.619 29.9641 55.8302 29.9641C55.9673 29.9641 56.0923 29.9447 56.2051 29.906C56.318 29.8658 56.4155 29.8061 56.4977 29.7272C56.58 29.648 56.643 29.5505 56.6864 29.4344L57.371 29.5579C57.316 29.7594 57.2177 29.9358 57.0758 30.0874C56.9355 30.2374 56.7589 30.3542 56.5461 30.4381C56.3349 30.5205 56.0938 30.5616 55.8229 30.5616ZM59.7839 30.5616C59.4244 30.5616 59.115 30.48 58.8553 30.3172C58.5973 30.1527 58.3991 29.9263 58.2603 29.6377C58.1217 29.349 58.0523 29.0184 58.0523 28.6459C58.0523 28.2686 58.1232 27.9356 58.2652 27.6472C58.4071 27.3568 58.6071 27.1302 58.865 26.9674C59.123 26.8046 59.427 26.7231 59.7768 26.7231C60.059 26.7231 60.3104 26.7756 60.5314 26.8805C60.7524 26.9836 60.9305 27.1287 61.0659 27.3157C61.203 27.5027 61.2845 27.7213 61.3102 27.9711H60.6064C60.5677 27.797 60.4791 27.6472 60.3403 27.5213C60.2032 27.3955 60.0194 27.3326 59.7889 27.3326C59.5874 27.3326 59.4107 27.3858 59.2592 27.4924C59.1093 27.597 58.9924 27.7471 58.9085 27.9421C58.8246 28.1356 58.7826 28.3646 58.7826 28.629C58.7826 28.8999 58.8239 29.1337 58.9061 29.3304C58.9883 29.5272 59.1044 29.6796 59.2544 29.7875C59.406 29.8956 59.5842 29.9497 59.7889 29.9497C59.926 29.9497 60.0501 29.9246 60.1615 29.8746C60.2743 29.823 60.3686 29.7497 60.4443 29.6545C60.5217 29.5594 60.5757 29.445 60.6064 29.3112H61.3102C61.2845 29.5514 61.2062 29.7659 61.0756 29.9544C60.945 30.1432 60.7701 30.2915 60.5506 30.3994C60.3331 30.5075 60.0776 30.5616 59.7839 30.5616ZM63.8177 26.7715V27.352H61.7885V26.7715H63.8177ZM62.3327 25.8816H63.0557V29.3957C63.0557 29.536 63.0767 29.6416 63.1186 29.7125C63.1606 29.7819 63.2146 29.8294 63.2808 29.8552C63.3485 29.8794 63.4218 29.8915 63.5009 29.8915C63.5589 29.8915 63.6097 29.8876 63.6531 29.8794C63.6968 29.8714 63.7305 29.8649 63.7547 29.8601L63.8853 30.4576C63.8434 30.4736 63.7837 30.4898 63.7065 30.5058C63.6291 30.5237 63.5323 30.5332 63.4162 30.535C63.2259 30.5382 63.0486 30.5043 62.884 30.4333C62.7197 30.3624 62.5865 30.2528 62.4851 30.1045C62.3835 29.9561 62.3327 29.7698 62.3327 29.5458V25.8816ZM64.6177 30.4865V26.7715H65.3409V30.4865H64.6177ZM64.9829 26.1983C64.857 26.1983 64.7491 26.1564 64.6587 26.0725C64.5701 25.9871 64.5258 25.8854 64.5258 25.7678C64.5258 25.6485 64.5701 25.5469 64.6587 25.4632C64.7491 25.3776 64.857 25.335 64.9829 25.335C65.1087 25.335 65.2159 25.3776 65.3046 25.4632C65.3947 25.5469 65.4399 25.6485 65.4399 25.7678C65.4399 25.8854 65.3947 25.9871 65.3046 26.0725C65.2159 26.1564 65.1087 26.1983 64.9829 26.1983ZM67.0369 28.2807V30.4865H66.3137V26.7715H67.0079V27.3763H67.0538C67.1392 27.1795 67.273 27.0214 67.4553 26.9021C67.6391 26.7827 67.8704 26.7231 68.1493 26.7231C68.4025 26.7231 68.6244 26.7765 68.8146 26.8829C69.0047 26.9875 69.1524 27.144 69.2572 27.352C69.3619 27.56 69.4144 27.8171 69.4144 28.1235V30.4865H68.6912V28.2106C68.6912 27.9414 68.6211 27.7309 68.4808 27.5793C68.3405 27.4262 68.1478 27.3497 67.9026 27.3497C67.7351 27.3497 67.5859 27.3858 67.4553 27.4584C67.3262 27.5311 67.2239 27.6374 67.148 27.7778C67.0739 27.9164 67.0369 28.0839 67.0369 28.2807ZM71.9418 31.957C71.6466 31.957 71.3928 31.9183 71.1798 31.8409C70.9688 31.7635 70.7963 31.6612 70.6624 31.5339C70.5286 31.4063 70.4285 31.2669 70.3625 31.1153L70.9839 30.8591C71.0276 30.93 71.0856 31.005 71.1582 31.0839C71.2324 31.1646 71.3323 31.2331 71.4581 31.2896C71.5854 31.346 71.7491 31.3741 71.9491 31.3741C72.2231 31.3741 72.4497 31.3073 72.6287 31.1734C72.8077 31.0411 72.8972 30.8299 72.8972 30.5397V29.8093H72.8512C72.8077 29.8883 72.7448 29.9763 72.6626 30.0729C72.582 30.1698 72.4706 30.2534 72.3288 30.3246C72.187 30.3955 72.0023 30.431 71.7748 30.431C71.4814 30.431 71.217 30.3624 70.9816 30.2253C70.7478 30.0867 70.5623 29.8826 70.4252 29.6134C70.2899 29.3425 70.2222 29.0096 70.2222 28.6145C70.2222 28.2195 70.289 27.8809 70.4229 27.5987C70.5584 27.3166 70.7437 27.1004 70.9792 26.9505C71.2146 26.799 71.4814 26.7231 71.7798 26.7231C72.0103 26.7231 72.1965 26.7618 72.3385 26.8392C72.4804 26.9151 72.5909 27.0037 72.6698 27.1053C72.7504 27.207 72.8125 27.2965 72.8559 27.3739H72.9093V26.7715H73.6179V30.5687C73.6179 30.888 73.5437 31.1501 73.3954 31.3549C73.2471 31.5596 73.0462 31.7112 72.7932 31.8096C72.5416 31.9079 72.2579 31.957 71.9418 31.957ZM71.9346 29.8312C72.1426 29.8312 72.3182 29.7827 72.4618 29.6859C72.6068 29.5877 72.7165 29.4474 72.7906 29.2651C72.8665 29.0813 72.9044 28.8612 72.9044 28.6048C72.9044 28.3549 72.8674 28.1347 72.7932 27.9445C72.7191 27.7542 72.6101 27.6059 72.4665 27.4995C72.3232 27.3916 72.1457 27.3376 71.9346 27.3376C71.7169 27.3376 71.5355 27.394 71.3904 27.5069C71.2453 27.618 71.1355 27.7696 71.0613 27.9616C70.9889 28.1533 70.9526 28.3678 70.9526 28.6048C70.9526 28.8483 70.9898 29.0619 71.0639 29.2459C71.1381 29.4297 71.2477 29.573 71.3928 29.6764C71.5394 29.7795 71.7201 29.8312 71.9346 29.8312ZM80.5623 27.144H79.8077C79.7787 26.9827 79.7247 26.8409 79.6458 26.7183C79.5666 26.5957 79.47 26.4917 79.3554 26.4063C79.241 26.3209 79.1128 26.2565 78.971 26.2128C78.8306 26.1693 78.6814 26.1475 78.5234 26.1475C78.238 26.1475 77.9824 26.2193 77.7567 26.3629C77.5327 26.5062 77.3552 26.7168 77.2246 26.994C77.0957 27.2714 77.0311 27.61 77.0311 28.0098C77.0311 28.413 77.0957 28.7531 77.2246 29.0305C77.3552 29.3079 77.5333 29.5174 77.7591 29.6593C77.9848 29.8013 78.2389 29.8723 78.521 29.8723C78.6773 29.8723 78.8257 29.8513 78.966 29.8093C79.108 29.7659 79.236 29.7021 79.3506 29.6182C79.465 29.5343 79.5619 29.432 79.6408 29.3112C79.7214 29.1886 79.777 29.0483 79.8077 28.8902L80.5623 28.8926C80.5221 29.136 80.4438 29.3603 80.3277 29.565C80.2133 29.7683 80.0657 29.944 79.8851 30.0924C79.7061 30.239 79.5013 30.3527 79.2709 30.4333C79.0401 30.514 78.7887 30.5542 78.5163 30.5542C78.0873 30.5542 77.7052 30.4526 77.3697 30.2496C77.0343 30.0448 76.7699 29.752 76.5764 29.3715C76.3846 28.991 76.2886 28.5371 76.2886 28.0098C76.2886 27.4809 76.3854 27.0271 76.579 26.6483C76.7725 26.2677 77.0369 25.9758 77.3723 25.7726C77.7076 25.5678 78.0888 25.4656 78.5163 25.4656C78.779 25.4656 79.0241 25.5034 79.2514 25.5791C79.4804 25.6532 79.686 25.7631 79.8683 25.9081C80.0503 26.0515 80.2012 26.2273 80.3204 26.4353C80.4397 26.6418 80.5204 26.8779 80.5623 27.144ZM82.4797 30.5687C82.2443 30.5687 82.0315 30.5252 81.8412 30.4381C81.651 30.3494 81.5 30.2212 81.3889 30.0537C81.2793 29.8859 81.2244 29.6803 81.2244 29.4368C81.2244 29.2273 81.2648 29.0547 81.3454 28.9192C81.4259 28.7838 81.5349 28.6766 81.6719 28.5977C81.809 28.5185 81.9621 28.4589 82.1314 28.4186C82.3007 28.3782 82.4732 28.3477 82.649 28.3267C82.8715 28.301 83.052 28.28 83.1908 28.2638C83.3294 28.2461 83.4302 28.2178 83.4931 28.1791C83.556 28.1406 83.5874 28.0777 83.5874 27.9905V27.9737C83.5874 27.7624 83.5277 27.5987 83.4084 27.4826C83.2907 27.3665 83.115 27.3084 82.8812 27.3084C82.6378 27.3084 82.4458 27.3624 82.3054 27.4705C82.1669 27.5769 82.0709 27.6954 82.0177 27.826L81.3381 27.6712C81.4187 27.4454 81.5364 27.2634 81.6912 27.1246C81.8477 26.9845 82.0274 26.8829 82.2306 26.8199C82.4337 26.7555 82.6473 26.7231 82.8715 26.7231C83.0198 26.7231 83.177 26.7408 83.3431 26.7765C83.5109 26.8102 83.6672 26.8731 83.8123 26.965C83.9591 27.0569 84.0793 27.1884 84.1727 27.3592C84.2663 27.5285 84.313 27.7486 84.313 28.0195V30.4865H83.6069V29.9786H83.5777C83.531 30.072 83.4609 30.1641 83.3673 30.2543C83.2739 30.3447 83.1537 30.4197 83.0068 30.4792C82.8603 30.5389 82.6845 30.5687 82.4797 30.5687ZM82.6369 29.9884C82.8369 29.9884 83.0077 29.9488 83.1496 29.8699C83.2931 29.7907 83.4019 29.6876 83.4763 29.5603C83.5519 29.4312 83.5898 29.2934 83.5898 29.1466V28.6677C83.564 28.6934 83.5141 28.7177 83.4399 28.7404C83.3673 28.7613 83.2843 28.7797 83.1908 28.7959C83.0972 28.8104 83.0062 28.824 82.9176 28.837C82.8287 28.8483 82.7545 28.858 82.6948 28.866C82.5547 28.8837 82.4265 28.9136 82.3104 28.9555C82.1958 28.9974 82.1039 29.058 82.0347 29.1369C81.9668 29.2143 81.9331 29.3174 81.9331 29.4465C81.9331 29.6256 81.9993 29.7609 82.1314 29.8528C82.2637 29.9432 82.4321 29.9884 82.6369 29.9884ZM85.2763 30.4865V26.7715H85.9753V27.3618H86.014C86.0817 27.1618 86.201 27.0046 86.3718 26.89C86.5444 26.7739 86.7394 26.7159 86.9571 26.7159C87.0023 26.7159 87.0555 26.7174 87.1167 26.7207C87.1796 26.7239 87.2289 26.728 87.2644 26.7328V27.4245C87.2352 27.4165 87.1837 27.4076 87.1096 27.3979C87.0354 27.3866 86.9612 27.381 86.8871 27.381C86.716 27.381 86.5636 27.4173 86.43 27.4898C86.2977 27.5609 86.1928 27.6599 86.1154 27.7873C86.038 27.9131 85.9993 28.0567 85.9993 28.2178V30.4865H85.2763ZM89.3582 30.5616C88.9921 30.5616 88.6769 30.4833 88.4125 30.327C88.1498 30.1689 87.9465 29.9473 87.803 29.6619C87.6611 29.3747 87.5902 29.0385 87.5902 28.6532C87.5902 28.2727 87.6611 27.9373 87.803 27.6472C87.9465 27.3568 88.1465 27.1302 88.403 26.9674C88.6609 26.8046 88.9623 26.7231 89.3074 26.7231C89.5171 26.7231 89.7201 26.7579 89.9169 26.8271C90.1137 26.8965 90.2901 27.0054 90.4466 27.1538C90.603 27.3021 90.7264 27.4947 90.8166 27.7317C90.907 27.9672 90.9521 28.2534 90.9521 28.5903V28.8467H87.9988V28.3049H90.2434C90.2434 28.1146 90.2047 27.9462 90.1273 27.7994C90.0499 27.6511 89.9411 27.5343 89.8008 27.4487C89.6622 27.3633 89.4994 27.3205 89.3124 27.3205C89.1091 27.3205 88.9318 27.3706 88.7803 27.4705C88.6302 27.5689 88.5141 27.6978 88.4319 27.8576C88.3513 28.0156 88.3108 28.1873 88.3108 28.3726V28.7959C88.3108 29.0441 88.3545 29.2554 88.4417 29.4297C88.5303 29.6037 88.6536 29.7367 88.8116 29.8286C88.9697 29.919 89.1543 29.9641 89.3656 29.9641C89.5026 29.9641 89.6274 29.9447 89.7402 29.906C89.8531 29.8658 89.9508 29.8061 90.033 29.7272C90.1152 29.648 90.1781 29.5505 90.2218 29.4344L90.9061 29.5579C90.8514 29.7594 90.753 29.9358 90.611 30.0874C90.4708 30.2374 90.2942 30.3542 90.0814 30.4381C89.8702 30.5205 89.6291 30.5616 89.3582 30.5616ZM95.2185 30.4865H93.6151V25.5332H95.2693C95.7547 25.5332 96.1714 25.6325 96.5197 25.8307C96.868 26.0275 97.1348 26.3103 97.3204 26.6796C97.5074 27.0472 97.6008 27.4883 97.6008 28.0026C97.6008 28.5185 97.5065 28.962 97.3178 29.3328C97.1307 29.7036 96.86 29.989 96.5052 30.189C96.1504 30.3873 95.7217 30.4865 95.2185 30.4865ZM94.3623 29.8336H95.1774C95.5547 29.8336 95.8683 29.7626 96.1182 29.6206C96.3681 29.4772 96.5552 29.2699 96.6793 28.9992C96.8036 28.7265 96.8657 28.3944 96.8657 28.0026C96.8657 27.6141 96.8036 27.2844 96.6793 27.0134C96.5569 26.7425 96.3738 26.5369 96.1303 26.3966C95.8868 26.2565 95.5846 26.1862 95.2233 26.1862H94.3623V29.8336ZM98.4721 30.4865V26.7715H99.1954V30.4865H98.4721ZM98.8373 26.1983C98.7115 26.1983 98.6036 26.1564 98.5132 26.0725C98.4246 25.9871 98.3802 25.8854 98.3802 25.7678C98.3802 25.6485 98.4246 25.5469 98.5132 25.4632C98.6036 25.3776 98.7115 25.335 98.8373 25.335C98.9632 25.335 99.0704 25.3776 99.1591 25.4632C99.2492 25.5469 99.2944 25.6485 99.2944 25.7678C99.2944 25.8854 99.2492 25.9871 99.1591 26.0725C99.0704 26.1564 98.9632 26.1983 98.8373 26.1983ZM101.726 31.957C101.431 31.957 101.177 31.9183 100.964 31.8409C100.753 31.7635 100.58 31.6612 100.446 31.5339C100.313 31.4063 100.212 31.2669 100.147 31.1153L100.768 30.8591C100.812 30.93 100.87 31.005 100.942 31.0839C101.016 31.1646 101.116 31.2331 101.242 31.2896C101.369 31.346 101.533 31.3741 101.733 31.3741C102.007 31.3741 102.234 31.3073 102.413 31.1734C102.592 31.0411 102.681 30.8299 102.681 30.5397V29.8093H102.635C102.592 29.8883 102.529 29.9763 102.447 30.0729C102.366 30.1698 102.255 30.2534 102.113 30.3246C101.971 30.3955 101.786 30.431 101.559 30.431C101.265 30.431 101.001 30.3624 100.766 30.2253C100.532 30.0867 100.346 29.8826 100.209 29.6134C100.074 29.3425 100.006 29.0096 100.006 28.6145C100.006 28.2195 100.073 27.8809 100.207 27.5987C100.342 27.3166 100.528 27.1004 100.763 26.9505C100.999 26.799 101.265 26.7231 101.564 26.7231C101.794 26.7231 101.98 26.7618 102.123 26.8392C102.264 26.9151 102.375 27.0037 102.454 27.1053C102.534 27.207 102.596 27.2965 102.64 27.3739H102.693V26.7715H103.402V30.5687C103.402 30.888 103.328 31.1501 103.179 31.3549C103.031 31.5596 102.83 31.7112 102.577 31.8096C102.326 31.9079 102.042 31.957 101.726 31.957ZM101.719 29.8312C101.927 29.8312 102.102 29.7827 102.246 29.6859C102.391 29.5877 102.5 29.4474 102.575 29.2651C102.651 29.0813 102.688 28.8612 102.688 28.6048C102.688 28.3549 102.651 28.1347 102.577 27.9445C102.503 27.7542 102.394 27.6059 102.251 27.4995C102.107 27.3916 101.93 27.3376 101.719 27.3376C101.501 27.3376 101.32 27.394 101.174 27.5069C101.029 27.618 100.919 27.7696 100.845 27.9616C100.773 28.1533 100.737 28.3678 100.737 28.6048C100.737 28.8483 100.774 29.0619 100.848 29.2459C100.922 29.4297 101.032 29.573 101.177 29.6764C101.323 29.7795 101.504 29.8312 101.719 29.8312ZM104.372 30.4865V26.7715H105.095V30.4865H104.372ZM104.737 26.1983C104.611 26.1983 104.503 26.1564 104.413 26.0725C104.324 25.9871 104.28 25.8854 104.28 25.7678C104.28 25.6485 104.324 25.5469 104.413 25.4632C104.503 25.3776 104.611 25.335 104.737 25.335C104.863 25.335 104.97 25.3776 105.059 25.4632C105.149 25.5469 105.194 25.6485 105.194 25.7678C105.194 25.8854 105.149 25.9871 105.059 26.0725C104.97 26.1564 104.863 26.1983 104.737 26.1983ZM107.802 26.7715V27.352H105.773V26.7715H107.802ZM106.317 25.8816H107.04V29.3957C107.04 29.536 107.061 29.6416 107.103 29.7125C107.145 29.7819 107.199 29.8294 107.265 29.8552C107.333 29.8794 107.406 29.8915 107.485 29.8915C107.543 29.8915 107.594 29.8876 107.638 29.8794C107.681 29.8714 107.715 29.8649 107.739 29.8601L107.87 30.4576C107.828 30.4736 107.768 30.4898 107.691 30.5058C107.613 30.5237 107.516 30.5332 107.4 30.535C107.21 30.5382 107.033 30.5043 106.868 30.4333C106.704 30.3624 106.571 30.2528 106.469 30.1045C106.368 29.9561 106.317 29.7698 106.317 29.5458V25.8816ZM109.683 30.5687C109.448 30.5687 109.235 30.5252 109.044 30.4381C108.854 30.3494 108.703 30.2212 108.592 30.0537C108.483 29.8859 108.428 29.6803 108.428 29.4368C108.428 29.2273 108.468 29.0547 108.549 28.9192C108.629 28.7838 108.738 28.6766 108.875 28.5977C109.012 28.5185 109.165 28.4589 109.335 28.4186C109.504 28.3782 109.676 28.3477 109.852 28.3267C110.075 28.301 110.255 28.28 110.394 28.2638C110.533 28.2461 110.633 28.2178 110.696 28.1791C110.759 28.1406 110.791 28.0777 110.791 27.9905V27.9737C110.791 27.7624 110.731 27.5987 110.612 27.4826C110.494 27.3665 110.318 27.3084 110.084 27.3084C109.841 27.3084 109.649 27.3624 109.509 27.4705C109.37 27.5769 109.274 27.6954 109.221 27.826L108.541 27.6712C108.622 27.4454 108.74 27.2634 108.895 27.1246C109.051 26.9845 109.231 26.8829 109.434 26.8199C109.637 26.7555 109.851 26.7231 110.075 26.7231C110.223 26.7231 110.38 26.7408 110.547 26.7765C110.714 26.8102 110.871 26.8731 111.016 26.965C111.162 27.0569 111.283 27.1884 111.376 27.3592C111.47 27.5285 111.516 27.7486 111.516 28.0195V30.4865H110.81V29.9786H110.781C110.734 30.072 110.664 30.1641 110.571 30.2543C110.477 30.3447 110.357 30.4197 110.21 30.4792C110.063 30.5389 109.888 30.5687 109.683 30.5687ZM109.84 29.9884C110.04 29.9884 110.211 29.9488 110.353 29.8699C110.497 29.7907 110.605 29.6876 110.679 29.5603C110.755 29.4312 110.793 29.2934 110.793 29.1466V28.6677C110.767 28.6934 110.717 28.7177 110.643 28.7404C110.571 28.7613 110.488 28.7797 110.394 28.7959C110.3 28.8104 110.209 28.824 110.121 28.837C110.032 28.8483 109.958 28.858 109.898 28.866C109.758 28.8837 109.63 28.9136 109.514 28.9555C109.399 28.9974 109.307 29.058 109.238 29.1369C109.17 29.2143 109.136 29.3174 109.136 29.4465C109.136 29.6256 109.203 29.7609 109.335 29.8528C109.467 29.9432 109.635 29.9884 109.84 29.9884ZM113.203 25.5332V30.4865H112.479V25.5332H113.203ZM114.899 25.5332V30.4865H114.175V25.5332H114.899ZM116.329 31.8796C116.221 31.8796 116.122 31.8707 116.034 31.853C115.945 31.837 115.879 31.8193 115.835 31.7998L116.009 31.2072C116.142 31.2429 116.259 31.258 116.363 31.2532C116.466 31.2485 116.557 31.2098 116.636 31.1371C116.716 31.0645 116.787 30.946 116.849 30.7817L116.938 30.535L115.579 26.7715H116.353L117.294 29.6545H117.332L118.273 26.7715H119.05L117.519 30.9823C117.448 31.1758 117.358 31.3395 117.248 31.4733C117.138 31.6087 117.007 31.7103 116.856 31.778C116.704 31.8459 116.529 31.8796 116.329 31.8796ZM122.973 30.5566C122.641 30.5566 122.355 30.4963 122.115 30.3752C121.876 30.2543 121.692 30.0898 121.563 29.8818C121.434 29.6723 121.37 29.4353 121.37 29.1709C121.37 28.9693 121.412 28.7903 121.495 28.6338C121.579 28.4759 121.696 28.33 121.846 28.1961C121.996 28.0623 122.169 27.9276 122.366 27.7923L123.164 27.2286C123.3 27.1399 123.405 27.0465 123.481 26.9481C123.557 26.848 123.595 26.7248 123.595 26.578C123.595 26.4619 123.545 26.3507 123.445 26.2444C123.345 26.1378 123.211 26.0846 123.043 26.0846C122.927 26.0846 122.825 26.1129 122.736 26.1693C122.649 26.2258 122.581 26.2982 122.531 26.3871C122.482 26.474 122.458 26.5659 122.458 26.6627C122.458 26.7756 122.489 26.8893 122.55 27.0037C122.613 27.1183 122.694 27.2368 122.792 27.3592C122.89 27.4803 122.993 27.6059 123.102 27.7365L125.402 30.4865H124.584L122.681 28.2493C122.521 28.0606 122.373 27.8833 122.236 27.7172C122.099 27.5494 121.987 27.3801 121.902 27.2093C121.818 27.0368 121.776 26.8506 121.776 26.6506C121.776 26.4232 121.828 26.2217 121.931 26.0459C122.036 25.8686 122.182 25.73 122.369 25.6299C122.556 25.53 122.775 25.48 123.027 25.48C123.281 25.48 123.5 25.53 123.682 25.6299C123.866 25.7283 124.007 25.8597 124.105 26.0243C124.205 26.1871 124.255 26.3652 124.255 26.5587C124.255 26.7942 124.196 27.0022 124.079 27.1827C123.963 27.3618 123.802 27.5261 123.597 27.6761L122.603 28.4089C122.41 28.5507 122.275 28.6911 122.199 28.8299C122.125 28.9667 122.088 29.074 122.088 29.1514C122.088 29.2934 122.124 29.4247 122.197 29.5458C122.271 29.6666 122.374 29.7633 122.507 29.8359C122.64 29.9086 122.797 29.9447 122.976 29.9447C123.159 29.9447 123.339 29.9053 123.513 29.8262C123.688 29.7456 123.847 29.6303 123.989 29.4805C124.133 29.3304 124.246 29.1507 124.33 28.941C124.414 28.7315 124.456 28.4969 124.456 28.2372H125.109C125.109 28.5566 125.073 28.8266 125 29.0474C124.927 29.2666 124.84 29.4457 124.736 29.5845C124.635 29.7213 124.539 29.8286 124.449 29.906C124.42 29.9319 124.392 29.9577 124.366 29.9834C124.341 30.0093 124.313 30.0351 124.284 30.0608C124.116 30.2301 123.913 30.3551 123.675 30.4357C123.438 30.5164 123.204 30.5566 122.973 30.5566ZM130.53 26.8344C130.504 26.6054 130.398 26.4281 130.211 26.3023C130.024 26.175 129.788 26.1112 129.505 26.1112C129.302 26.1112 129.126 26.1436 128.977 26.208C128.829 26.271 128.714 26.3579 128.632 26.4692C128.551 26.5789 128.511 26.7038 128.511 26.8441C128.511 26.9618 128.538 27.0634 128.593 27.1488C128.649 27.2342 128.723 27.306 128.813 27.3641C128.905 27.4206 129.003 27.4681 129.108 27.5069C129.213 27.5438 129.314 27.5745 129.411 27.5987L129.894 27.7244C130.052 27.7631 130.214 27.8156 130.38 27.8818C130.546 27.9477 130.7 28.0349 130.842 28.143C130.984 28.2509 131.099 28.3847 131.186 28.5445C131.274 28.704 131.319 28.8952 131.319 29.1177C131.319 29.3981 131.246 29.6472 131.101 29.8649C130.958 30.0826 130.749 30.2543 130.475 30.3801C130.202 30.5058 129.872 30.5687 129.485 30.5687C129.115 30.5687 128.794 30.5099 128.523 30.3923C128.252 30.2744 128.04 30.1077 127.887 29.8915C127.734 29.6738 127.649 29.4158 127.633 29.1177H128.382C128.397 29.2965 128.455 29.4457 128.557 29.565C128.66 29.6826 128.791 29.7706 128.951 29.8286C129.112 29.885 129.289 29.9133 129.481 29.9133C129.692 29.9133 129.88 29.8803 130.044 29.8141C130.21 29.7464 130.341 29.653 130.436 29.5337C130.531 29.4126 130.579 29.2716 130.579 29.1103C130.579 28.9635 130.537 28.8435 130.453 28.7499C130.371 28.6565 130.259 28.5791 130.117 28.5179C129.976 28.4565 129.818 28.4024 129.64 28.3557L129.055 28.1961C128.658 28.088 128.344 27.9293 128.112 27.7196C127.881 27.5101 127.766 27.2327 127.766 26.8876C127.766 26.6022 127.843 26.3531 127.998 26.1404C128.153 25.9274 128.362 25.7622 128.627 25.6444C128.891 25.5252 129.19 25.4656 129.522 25.4656C129.857 25.4656 130.153 25.5244 130.409 25.642C130.667 25.7598 130.87 25.9218 131.019 26.1283C131.167 26.333 131.244 26.5685 131.251 26.8344H130.53ZM133.755 30.5616C133.389 30.5616 133.074 30.4833 132.809 30.327C132.546 30.1689 132.343 29.9473 132.2 29.6619C132.058 29.3747 131.987 29.0385 131.987 28.6532C131.987 28.2727 132.058 27.9373 132.2 27.6472C132.343 27.3568 132.543 27.1302 132.799 26.9674C133.057 26.8046 133.359 26.7231 133.704 26.7231C133.914 26.7231 134.117 26.7579 134.314 26.8271C134.51 26.8965 134.687 27.0054 134.843 27.1538C135 27.3021 135.123 27.4947 135.213 27.7317C135.303 27.9672 135.349 28.2534 135.349 28.5903V28.8467H132.396V28.3049H134.64C134.64 28.1146 134.601 27.9462 134.524 27.7994C134.447 27.6511 134.338 27.5343 134.198 27.4487C134.059 27.3633 133.896 27.3205 133.709 27.3205C133.506 27.3205 133.328 27.3706 133.177 27.4705C133.027 27.5689 132.911 27.6978 132.828 27.8576C132.748 28.0156 132.708 28.1873 132.708 28.3726V28.7959C132.708 29.0441 132.751 29.2554 132.838 29.4297C132.927 29.6037 133.05 29.7367 133.208 29.8286C133.366 29.919 133.551 29.9641 133.762 29.9641C133.899 29.9641 134.024 29.9447 134.137 29.906C134.25 29.8658 134.347 29.8061 134.43 29.7272C134.512 29.648 134.575 29.5505 134.618 29.4344L135.303 29.5579C135.248 29.7594 135.15 29.9358 135.008 30.0874C134.867 30.2374 134.691 30.3542 134.478 30.4381C134.267 30.5205 134.026 30.5616 133.755 30.5616ZM137.716 30.5616C137.356 30.5616 137.047 30.48 136.787 30.3172C136.529 30.1527 136.331 29.9263 136.192 29.6377C136.054 29.349 135.984 29.0184 135.984 28.6459C135.984 28.2686 136.055 27.9356 136.197 27.6472C136.339 27.3568 136.539 27.1302 136.797 26.9674C137.055 26.8046 137.359 26.7231 137.709 26.7231C137.991 26.7231 138.242 26.7756 138.463 26.8805C138.684 26.9836 138.862 27.1287 138.998 27.3157C139.135 27.5027 139.216 27.7213 139.242 27.9711H138.538C138.5 27.797 138.411 27.6472 138.272 27.5213C138.135 27.3955 137.951 27.3326 137.721 27.3326C137.519 27.3326 137.343 27.3858 137.191 27.4924C137.041 27.597 136.924 27.7471 136.84 27.9421C136.756 28.1356 136.715 28.3646 136.715 28.629C136.715 28.8999 136.756 29.1337 136.838 29.3304C136.92 29.5272 137.036 29.6796 137.186 29.7875C137.338 29.8956 137.516 29.9497 137.721 29.9497C137.858 29.9497 137.982 29.9246 138.093 29.8746C138.206 29.823 138.3 29.7497 138.376 29.6545C138.454 29.5594 138.508 29.445 138.538 29.3112H139.242C139.216 29.5514 139.138 29.7659 139.007 29.9544C138.877 30.1432 138.702 30.2915 138.483 30.3994C138.265 30.5075 138.009 30.5616 137.716 30.5616ZM142.369 28.9458V26.7715H143.094V30.4865H142.383V29.8433H142.345C142.259 30.0416 142.122 30.2067 141.933 30.3391C141.746 30.4697 141.513 30.535 141.234 30.535C140.996 30.535 140.785 30.4824 140.601 30.3778C140.419 30.2712 140.275 30.114 140.17 29.906C140.067 29.698 140.015 29.4409 140.015 29.1345V26.7715H140.739V29.0474C140.739 29.3006 140.809 29.5021 140.949 29.6522C141.089 29.802 141.271 29.877 141.496 29.877C141.631 29.877 141.766 29.8433 141.9 29.7754C142.035 29.7077 142.147 29.6054 142.236 29.4684C142.326 29.3313 142.37 29.157 142.369 28.9458ZM144.066 30.4865V26.7715H144.765V27.3618H144.804C144.871 27.1618 144.991 27.0046 145.162 26.89C145.334 26.7739 145.529 26.7159 145.747 26.7159C145.792 26.7159 145.845 26.7174 145.907 26.7207C145.969 26.7239 146.019 26.728 146.054 26.7328V27.4245C146.025 27.4165 145.974 27.4076 145.899 27.3979C145.825 27.3866 145.751 27.381 145.677 27.381C145.506 27.381 145.353 27.4173 145.22 27.4898C145.087 27.5609 144.983 27.6599 144.905 27.7873C144.828 27.9131 144.789 28.0567 144.789 28.2178V30.4865H144.066ZM148.148 30.5616C147.782 30.5616 147.467 30.4833 147.202 30.327C146.94 30.1689 146.736 29.9473 146.593 29.6619C146.451 29.3747 146.38 29.0385 146.38 28.6532C146.38 28.2727 146.451 27.9373 146.593 27.6472C146.736 27.3568 146.936 27.1302 147.193 26.9674C147.451 26.8046 147.752 26.7231 148.097 26.7231C148.307 26.7231 148.51 26.7579 148.707 26.8271C148.903 26.8965 149.08 27.0054 149.236 27.1538C149.393 27.3021 149.516 27.4947 149.606 27.7317C149.697 27.9672 149.742 28.2534 149.742 28.5903V28.8467H146.789V28.3049H149.033C149.033 28.1146 148.995 27.9462 148.917 27.7994C148.84 27.6511 148.731 27.5343 148.591 27.4487C148.452 27.3633 148.289 27.3205 148.102 27.3205C147.899 27.3205 147.721 27.3706 147.57 27.4705C147.42 27.5689 147.304 27.6978 147.222 27.8576C147.141 28.0156 147.101 28.1873 147.101 28.3726V28.7959C147.101 29.0441 147.144 29.2554 147.231 29.4297C147.32 29.6037 147.443 29.7367 147.601 29.8286C147.759 29.919 147.944 29.9641 148.155 29.9641C148.292 29.9641 148.417 29.9447 148.53 29.906C148.643 29.8658 148.74 29.8061 148.823 29.7272C148.905 29.648 148.968 29.5505 149.011 29.4344L149.696 29.5579C149.641 29.7594 149.543 29.9358 149.401 30.0874C149.261 30.2374 149.084 30.3542 148.871 30.4381C148.66 30.5205 148.419 30.5616 148.148 30.5616ZM151.267 25.5332V30.4865H150.544V25.5332H151.267ZM152.697 31.8796C152.589 31.8796 152.491 31.8707 152.402 31.853C152.314 31.837 152.247 31.8193 152.204 31.7998L152.378 31.2072C152.51 31.2429 152.628 31.258 152.731 31.2532C152.835 31.2485 152.926 31.2098 153.005 31.1371C153.085 31.0645 153.156 30.946 153.217 30.7817L153.307 30.535L151.948 26.7715H152.722L153.662 29.6545H153.701L154.642 26.7715H155.418L153.887 30.9823C153.816 31.1758 153.726 31.3395 153.617 31.4733C153.507 31.6087 153.376 31.7103 153.225 31.778C153.073 31.8459 152.897 31.8796 152.697 31.8796Z" fill="#0D1717"/>
</svg>
