<svg width="77" height="76" viewBox="0 0 77 76" fill="none" xmlns="http://www.w3.org/2000/svg">
<rect x="0.914062" width="75.5" height="75.5" rx="37.75" fill="#6C34B4" fill-opacity="0.1"/>
<path d="M32.3699 28.3122C32.3699 24.836 35.1854 22.0205 38.6616 22.0205C42.1377 22.0205 44.9532 24.836 44.9532 28.3122C44.9532 31.7883 42.1377 34.6038 38.6616 34.6038C35.1854 34.6038 32.3699 31.7883 32.3699 28.3122ZM46.5261 53.4788H48.0991C49.8293 53.4788 51.2449 52.0632 51.2449 50.333V42.8145C51.2449 41.0528 50.2854 39.4327 48.7125 38.6305C48.0361 38.2845 47.3126 37.9542 46.5261 37.6553V53.4788ZM39.1964 45.6143L43.3803 36.6958C41.9175 36.3655 40.3446 36.1768 38.6616 36.1768C34.6821 36.1768 31.2531 37.2778 28.6106 38.6305C27.8431 39.0258 27.2002 39.6261 26.7532 40.3646C26.3061 41.1032 26.0725 41.9512 26.0782 42.8145V53.4788H29.7589C29.4128 52.771 29.2241 51.9688 29.2241 51.1195C29.2241 48.0837 31.6935 45.6143 34.7293 45.6143H39.1964ZM35.5157 53.4788L37.7335 48.7601H34.7293C33.4237 48.7601 32.3699 49.8139 32.3699 51.1195C32.3699 52.425 33.4237 53.4788 34.7293 53.4788H35.5157Z" fill="#6C34B4"/>
</svg>
